# xmcd CD database file
#
# Track frame offsets:
#	150
#	14770
#	32790
#	51832
#	68957
#	85885
#	106560
#	124922
#	135987
#	158000
#	179142
#
# Disc length: 2590 seconds
#
# Revision: 2
# Processed by: cddbd v1.5.1PL0 Copyright (c) Steve Scherf et al.
# Submitted via: CDex 1.51
#
DISCID=920a1c0b
DTITLE=Various Artist - Arista Nashville - Up Close 22
DYEAR=1995
DGENRE=Country
TTITLE0=Tonight The Bottle Let Me Down
TTITLE1=A Fine Line
TTITLE2=Married to a  Memory
TTITLE3=Fallin' Apart
TTITLE4=Calico Plains
TTITLE5=Making It Up As I Go Along
TTITLE6=That's Just About Right
TTITLE7=Appalachain Dream
TTITLE8=Kentucky Mine
TTITLE9=If It Were Me
TTITLE10=Sails
EXTD=YEAR: 1995
EXTT0=
EXTT1=
EXTT2=
EXTT3=
EXTT4=
EXTT5=
EXTT6=
EXTT7=
EXTT8=
EXTT9=
EXTT10=
PLAYORDER=
